# xmcd
#
# Track frame offsets: 
#        150
#        17783
#        31615
#        42135
#        52335
#        62940
#        79975
#        95676
#        110686
#        125439
#        140201
#        153314
#        174509
#        187603
#
# Disc length: 2656 seconds
#
# Revision: 0
# Processed by: cddbd v1.5.2PL0 Copyright (c) Steve Scherf et al.
# Submitted via: ExactAudioCopyFreeDBPlugin 1.0
#
DISCID=bf0a5e0e
DTITLE=Flying Burrito Brothers, The - The Last Of The Red Hot Burritos
DYEAR=1972
DGENRE=Country-Rock
TTITLE0=Devil In Disguise
TTITLE1=Six Days On The Road
TTITLE2=My Uncle
TTITLE3=Dixie Breakdown
TTITLE4=Don't Let Your Deal Go Down
TTITLE5=Orange Blossom Special
TTITLE6=Wake Up Little Susie [#]
TTITLE7=Money Honey [#]
TTITLE8=Ain't That A Lot Of Love
TTITLE9=High Fashion Queen
TTITLE10=Don't Fight It
TTITLE11=Hot Burrito #2
TTITLE12=Losing Game
TTITLE13=One Hundred Years From Now [#]
EXTD=
EXTT0=
EXTT1=
EXTT2=
EXTT3=
EXTT4=
EXTT5=
EXTT6=
EXTT7=
EXTT8=
EXTT9=
EXTT10=
EXTT11=
EXTT12=
EXTT13=
PLAYORDER=
